<?xml version="1.0" encoding="utf-8"?>
<!-- Generator: Adobe Illustrator 19.1.0, SVG Export Plug-In . SVG Version: 6.00 Build 0)  -->
<svg version="1.1" id="Layer_1" xmlns="http://www.w3.org/2000/svg" xmlns:xlink="http://www.w3.org/1999/xlink" x="0px" y="0px"
	 viewBox="-237 239 24 24" style="enable-background:new -237 239 24 24;" xml:space="preserve">
<style type="text/css">
	.st0{fill:#5B5B5B;}
</style>
<path class="st0" d="M-221.1,246.1l-3.3,3.3l1.1,1.1l3.9-3.8v-0.6 M-225,251.3c-0.2,0-0.3-0.1-0.3-0.3s0.1-0.3,0.3-0.3
	s0.3,0.1,0.3,0.3S-224.8,251.3-225,251.3 M-228.3,255.4c-0.6,0-1.1-0.5-1.1-1.1c0-0.6,0.5-1.1,1.1-1.1c0.6,0,1.1,0.5,1.1,1.1
	C-227.2,254.9-227.7,255.4-228.3,255.4 M-228.3,248.8c-0.6,0-1.1-0.5-1.1-1.1c0-0.6,0.5-1.1,1.1-1.1c0.6,0,1.1,0.5,1.1,1.1
	C-227.2,248.3-227.7,248.8-228.3,248.8 M-226.3,248.6c0.1-0.3,0.2-0.6,0.2-0.9c0-1.2-1-2.2-2.2-2.2s-2.2,1-2.2,2.2s1,2.2,2.2,2.2
	c0.3,0,0.6-0.1,0.9-0.2l1.3,1.3l-1.3,1.3c-0.3-0.1-0.6-0.2-0.9-0.2c-1.2,0-2.2,1-2.2,2.2s1,2.2,2.2,2.2s2.2-1,2.2-2.2
	c0-0.3-0.1-0.6-0.2-0.9l1.3-1.3l3.9,3.8h1.6v-0.6L-226.3,248.6z"/>
</svg>
