<?xml version="1.0" encoding="utf-8"?>
<!-- Generator: Adobe Illustrator 19.1.0, SVG Export Plug-In . SVG Version: 6.00 Build 0)  -->
<svg version="1.1" id="Layer_1" xmlns="http://www.w3.org/2000/svg" xmlns:xlink="http://www.w3.org/1999/xlink" x="0px" y="0px"
	 viewBox="-237 239 24 24" style="enable-background:new -237 239 24 24;" xml:space="preserve">
<style type="text/css">
	.st0{fill:#5B5B5B;}
</style>
<path class="st0" d="M-221,251c-0.6,0-1.1-0.5-1.1-1.1c0-0.6,0.5-1.1,1.1-1.1c0.6,0,1.1,0.5,1.1,1.1C-219.9,250.5-220.4,251-221,251
	 M-223.3,248.3c-0.6,0-1-0.4-1-1c0-0.6,0.4-1,1-1c0.6,0,1,0.4,1,1C-222.3,247.9-222.8,248.3-223.3,248.3 M-226.7,248.3
	c-0.6,0-1-0.4-1-1c0-0.6,0.4-1,1-1c0.6,0,1,0.4,1,1C-225.7,247.9-226.1,248.3-226.7,248.3 M-229,251c-0.6,0-1.1-0.5-1.1-1.1
	c0-0.6,0.5-1.1,1.1-1.1c0.6,0,1.1,0.5,1.1,1.1C-227.9,250.5-228.4,251-229,251 M-225,245c-3.3,0-6,2.7-6,6s2.7,6,6,6
	c0.6,0,1-0.4,1-1c0-0.3-0.1-0.5-0.3-0.7c-0.2-0.2-0.3-0.4-0.3-0.7c0-0.6,0.4-1,1-1h1.2c1.8,0,3.3-1.5,3.3-3.3
	C-219,247.4-221.7,245-225,245z"/>
</svg>
